PathFileType	4	(X/Y/Z)	/Users/itak/Documents/Research/Walk-IL/dataset/trc/00089_00006.trc
DataRate	CameraRate	NumFrames	NumMarkers	Units	OrigDataRate	OrigDataStartFrame	OrigNumFrames
100.000000	100.000000	4	53	mm	100.000000	63	504
Frame#	Time	RPSI			LPSI			L3			STRN			T10			C7			CLAV			RBAK			LBAK			LSHO			LUPA			LAEL			LAOL			LWTS			LWPS			LFRA			LIFD			LHPS			LHTS			RSHO			RUPA			RAEL			RAOL			RWTS			RWPS			RFRA			RIFD			RHTS			RHPS			RBHD			LFHD			RFHD			LBHD			LHIP			RHIP			RASI			LASI			LKNE			LTHI			LANK			LTIP			LTOE			LMT1			LMT5			LHEE			RKNE			RTHI			RANK			RTIP			RTOE			RMT1			RMT5			RHEE			
		X1	Y1	Z1	X2	Y2	Z2	X3	Y3	Z3	X4	Y4	Z4	X5	Y5	Z5	X6	Y6	Z6	X7	Y7	Z7	X8	Y8	Z8	X9	Y9	Z9	X10	Y10	Z10	X11	Y11	Z11	X12	Y12	Z12	X13	Y13	Z13	X14	Y14	Z14	X15	Y15	Z15	X16	Y16	Z16	X17	Y17	Z17	X18	Y18	Z18	X19	Y19	Z19	X20	Y20	Z20	X21	Y21	Z21	X22	Y22	Z22	X23	Y23	Z23	X24	Y24	Z24	X25	Y25	Z25	X26	Y26	Z26	X27	Y27	Z27	X28	Y28	Z28	X29	Y29	Z29	X30	Y30	Z30	X31	Y31	Z31	X32	Y32	Z32	X33	Y33	Z33	X34	Y34	Z34	X35	Y35	Z35	X36	Y36	Z36	X37	Y37	Z37	X38	Y38	Z38	X39	Y39	Z39	X40	Y40	Z40	X41	Y41	Z41	X42	Y42	Z42	X43	Y43	Z43	X44	Y44	Z44	X45	Y45	Z45	X46	Y46	Z46	X47	Y47	Z47	X48	Y48	Z48	X49	Y49	Z49	X50	Y50	Z50	X51	Y51	Z51	X52	Y52	Z52	X53	Y53	Z53	

64	0.63	-1286.989868164062	1034.595092773438	122.2421569824219	-1299.055419921875	1022.703796386719	-51.93585205078125	-1290.607055664062	1084.1484375	27.66372680664062	-1045.254272460938	1292.195678710938	24.06143379211426	-1312.624145507812	1218.831298828125	19.19585990905762	-1259.852905273438	1486.283935546875	10.98721218109131	-1077.823608398438	1406.262084960938	20.07242774963379	-1320.430419921875	1347.701293945312	88.21443939208984	-1277.307373046875	1446.41845703125	-90.50971984863281	-1172.025634765625	1452.459716796875	-160.1294860839844	-1182.659301757812	1323.0478515625	-236.1149291992188	-1154.010375976562	1109.314819335938	-251.6091156005859	-1220.131958007812	1093.691528320312	-168.7130432128906	-1060.124145507812	873.0633544921875	-182.7427673339844	-1115.606201171875	859.7293701171875	-244.378173828125	-1131.068115234375	1000.84326171875	-257.1350708007812	-1040.258666992188	689.3480224609375	-162.1031494140625	-1080.159912109375	779.9917602539062	-237.5888824462891	-1038.911499023438	790.4609985351562	-183.5348815917969	-1201.402099609375	1454.226440429688	190.4849700927734	-1212.617065429688	1384.376342773438	255.5919036865234	-1238.40283203125	1117.431640625	276.9286193847656	-1220.239135742188	1097.99462890625	181.3489532470703	-1091.127197265625	870.1407470703125	242.0997314453125	-1164.878051757812	852.02001953125	287.1419372558594	-1224.835205078125	1038.421997070312	282.1194458007812	-1078.532348632812	682.2982177734375	225.3514709472656	-1064.849365234375	770.3167724609375	242.5856781005859	-1124.582397460938	764.5267333984375	290.8265991210938	-1235.349365234375	1653.945556640625	84.23097229003906	-1057.729858398438	1712.94287109375	-35.89456558227539	-1071.367309570312	1706.0673828125	88.90347290039062	-1229.6181640625	1667.2236328125	-53.11473846435547	-1194.87841796875	963.42724609375	-145.0829772949219	-1215.776611328125	964.8853149414062	199.1260070800781	-1092.858276367188	985.7348022460938	174.3270721435547	-1081.324462890625	976.2388916015625	-95.18981170654297	-1103.187622070312	502.7555236816406	-96.50936889648438	-1140.422241210938	641.359619140625	-131.9689025878906	-1245.319946289062	53.97191619873047	-116.1083450317383	-1180.9482421875	264.8434143066406	-120.0398101806641	-1038.567749023438	46.21969985961914	-116.931640625	-1085.715087890625	46.36033630371094	-61.46311187744141	-1143.983154296875	44.92645263671875	-157.3965454101562	-1294.240234375	49.97620391845703	-37.61470031738281	-1126.668212890625	522.0133056640625	175.1255035400391	-1126.453125	795.9266967773438	201.3617858886719	-1228.390991210938	46.57942199707031	169.5449676513672	-1149.135009765625	399.3041381835938	180.9544372558594	-1009.533569335938	43.05682754516602	145.2502288818359	-1069.300659179688	47.35903930664062	101.4843368530273	-1105.927490234375	49.35845947265625	193.1259918212891	-1272.061279296875	46.17455291748047	110.6003723144531	
65	0.64	-1286.962524414062	1034.597045898438	122.0659255981445	-1298.94287109375	1022.670959472656	-52.12045669555664	-1290.55517578125	1084.158569335938	27.4644889831543	-1045.107543945312	1292.0849609375	23.89713287353516	-1312.528686523438	1218.856811523438	18.94615364074707	-1259.6435546875	1486.2900390625	10.7381010055542	-1077.598876953125	1406.22265625	19.89600944519043	-1320.268920898438	1347.738403320312	87.95719909667969	-1277.062744140625	1446.431274414062	-90.75188446044922	-1171.747436523438	1452.451171875	-160.3249206542969	-1182.391723632812	1323.090576171875	-236.3747406005859	-1153.735961914062	1109.435791015625	-252.1951293945312	-1219.75341796875	1093.651000976562	-169.2492980957031	-1059.602905273438	873.1719360351562	-183.8009643554688	-1115.156616210938	859.8648681640625	-245.3782348632812	-1130.690673828125	1000.964294433594	-257.891357421875	-1039.543212890625	689.3897705078125	-163.485107421875	-1079.602905273438	780.1231689453125	-238.7408905029297	-1038.36865234375	790.5880737304688	-184.6883697509766	-1201.263916015625	1454.203247070312	190.2671966552734	-1212.541625976562	1384.363525390625	255.3741912841797	-1238.486083984375	1117.41357421875	276.64892578125	-1220.304565429688	1097.97216796875	181.0727691650391	-1091.23974609375	870.0885620117188	241.9675598144531	-1165.060791015625	851.9578247070312	286.8938598632812	-1225.002685546875	1038.380981445312	281.8095092773438	-1078.650146484375	682.2498168945312	225.2326049804688	-1064.986572265625	770.2738037109375	242.4747161865234	-1124.73974609375	764.466064453125	290.60302734375	-1235.086059570312	1653.940063476562	83.95745849609375	-1057.3857421875	1712.828125	-36.11432647705078	-1071.145874023438	1705.971557617188	88.68928527832031	-1229.313232421875	1667.186279296875	-53.35266876220703	-1194.706909179688	963.3560180664062	-145.1921539306641	-1215.762451171875	964.8878173828125	199.0070343017578	-1092.88623046875	985.740478515625	174.2326049804688	-1080.961303710938	976.2188110351562	-95.41231536865234	-1102.996215820312	502.7263488769531	-96.45394134521484	-1139.9287109375	641.2199096679688	-131.8481140136719	-1245.314453125	53.97757339477539	-116.0976104736328	-1180.842651367188	264.8128356933594	-120.0295715332031	-1038.567504882812	46.21726989746094	-116.9221343994141	-1085.689086914062	46.34052276611328	-61.43674468994141	-1143.943725585938	44.91868209838867	-157.3671112060547	-1294.24609375	49.98207855224609	-37.61008071899414	-1126.591918945312	522.030517578125	175.0301513671875	-1126.62255859375	795.864013671875	201.2772064208984	-1228.39111328125	46.58500289916992	169.5421752929688	-1149.112670898438	399.303955078125	180.9143218994141	-1009.539794921875	43.06057357788086	145.2588653564453	-1069.303588867188	47.36343383789062	101.4901809692383	-1105.91845703125	49.38779830932617	193.1275024414062	-1272.0634765625	46.17477035522461	110.5888824462891	
66	0.65	-1286.933349609375	1034.603759765625	121.8771438598633	-1298.837036132812	1022.640258789062	-52.3194465637207	-1290.493774414062	1084.172241210938	27.25394058227539	-1044.965454101562	1291.9736328125	23.73616981506348	-1312.432373046875	1218.882202148438	18.69393920898438	-1259.44921875	1486.29248046875	10.4735803604126	-1077.383178710938	1406.179321289062	19.71737289428711	-1320.113159179688	1347.773315429688	87.69759368896484	-1276.822265625	1446.443237304688	-91.00432586669922	-1171.466674804688	1452.443603515625	-160.5263519287109	-1182.123901367188	1323.128051757812	-236.6306915283203	-1153.476806640625	1109.549072265625	-252.7681884765625	-1219.374389648438	1093.610229492188	-169.7645416259766	-1059.099609375	873.268798828125	-184.8296051025391	-1114.707275390625	859.9979858398438	-246.3452911376953	-1130.32568359375	1001.0830078125	-258.6272277832031	-1038.745239257812	689.3690185546875	-164.7953948974609	-1079.0576171875	780.2556762695312	-239.8614501953125	-1037.80859375	790.7205810546875	-185.8300933837891	-1201.125122070312	1454.183959960938	190.0455169677734	-1212.453979492188	1384.356323242188	255.1495666503906	-1238.532348632812	1117.399169921875	276.400390625	-1220.339233398438	1097.945922851562	180.8108215332031	-1091.314697265625	870.0458374023438	241.8884124755859	-1165.18994140625	851.910888671875	286.7127685546875	-1225.128051757812	1038.35009765625	281.5415954589844	-1078.708618164062	682.2053833007812	225.1805114746094	-1065.06884765625	770.2398681640625	242.4261169433594	-1124.838012695312	764.4271850585938	290.4632263183594	-1234.817138671875	1653.93310546875	83.70625305175781	-1057.018432617188	1712.716186523438	-36.32582092285156	-1070.924560546875	1705.877563476562	88.48123931884766	-1229.0146484375	1667.163940429688	-53.59116744995117	-1194.54833984375	963.2908935546875	-145.3214111328125	-1215.746215820312	964.8944702148438	198.879638671875	-1092.9111328125	985.7427368164062	174.1195831298828	-1080.677612304688	976.1823120117188	-95.56742858886719	-1102.821166992188	502.6965942382812	-96.41083526611328	-1139.491088867188	641.0973510742188	-131.7716522216797	-1245.308471679688	53.97969436645508	-116.0898513793945	-1180.718017578125	264.7786865234375	-120.0317153930664	-1038.564819335938	46.21379470825195	-116.9131164550781	-1085.661743164062	46.3206787109375	-61.41228103637695	-1143.892456054688	44.89760971069336	-157.3348999023438	-1294.251831054688	49.99283599853516	-37.61136245727539	-1126.470092773438	522.0486450195312	174.9175415039062	-1126.750610351562	795.7996215820312	201.2059783935547	-1228.392211914062	46.59098052978516	169.5384979248047	-1149.068603515625	399.2976684570312	180.8674468994141	-1009.545471191406	43.06378936767578	145.2657775878906	-1069.306274414062	47.36607360839844	101.4961318969727	-1105.911865234375	49.40867233276367	193.1314849853516	-1272.065673828125	46.17540740966797	110.577766418457	
67	0.66	-1286.905029296875	1034.614135742188	121.6743545532227	-1298.737548828125	1022.609802246094	-52.5307502746582	-1290.422973632812	1084.190551757812	27.03254127502441	-1044.818969726562	1291.866333007812	23.57691955566406	-1312.331298828125	1218.90771484375	18.43792152404785	-1259.266479492188	1486.292236328125	10.19504547119141	-1077.180053710938	1406.130859375	19.53891181945801	-1319.962158203125	1347.80712890625	87.43482971191406	-1276.586791992188	1446.455200195312	-91.26747894287109	-1171.179565429688	1452.438354492188	-160.7334136962891	-1181.854370117188	1323.1611328125	-236.8844757080078	-1153.23046875	1109.655395507812	-253.3256378173828	-1218.994018554688	1093.570678710938	-170.2550659179688	-1058.607421875	873.356201171875	-185.8267211914062	-1114.264404296875	860.1283569335938	-247.2763519287109	-1129.972534179688	1001.201843261719	-259.3397216796875	-1037.917236328125	689.3193359375	-166.0455474853516	-1078.535522460938	780.3920288085938	-240.9488677978516	-1037.244750976562	790.8609008789062	-186.9602661132812	-1200.988403320312	1454.168090820312	189.8172149658203	-1212.355102539062	1384.35546875	254.9177856445312	-1238.541137695312	1117.390747070312	276.1836242675781	-1220.340209960938	1097.917724609375	180.5689086914062	-1091.353515625	870.0122680664062	241.8534240722656	-1165.270141601562	851.8817749023438	286.5938720703125	-1225.206298828125	1038.333251953125	281.318359375	-1078.715576171875	682.165283203125	225.1844177246094	-1065.102294921875	770.215576171875	242.4274597167969	-1124.89794921875	764.4105834960938	290.3946228027344	-1234.539428710938	1653.926879882812	83.48818969726562	-1056.632568359375	1712.610107421875	-36.52628326416016	-1070.69580078125	1705.787109375	88.27941131591797	-1228.717895507812	1667.158203125	-53.8271369934082	-1194.40869140625	963.233154296875	-145.4750823974609	-1215.730834960938	964.9033203125	198.7431945800781	-1092.935791015625	985.74072265625	173.9870452880859	-1080.470947265625	976.125	-95.66464233398438	-1102.658569335938	502.6650390625	-96.38573455810547	-1139.1083984375	640.9932250976562	-131.7428283691406	-1245.301391601562	53.97780990600586	-116.0854797363281	-1180.569580078125	264.7394409179688	-120.0463714599609	-1038.557983398438	46.20857238769531	-116.9045639038086	-1085.632446289062	46.30014801025391	-61.39089584350586	-1143.83447265625	44.86531066894531	-157.3031616210938	-1294.256713867188	50.0078239440918	-37.618896484375	-1126.29931640625	522.06396484375	174.7920837402344	-1126.827392578125	795.7472534179688	201.1414031982422	-1228.392700195312	46.59672546386719	169.5342254638672	-1148.999633789062	399.2834167480469	180.8129730224609	-1009.549438476562	43.06616973876953	145.2704772949219	-1069.307495117188	47.36585998535156	101.5013580322266	-1105.911499023438	49.41298294067383	193.1389923095703	-1272.067138671875	46.17757415771484	110.5676345825195	
